<svg width="98" height="30" viewBox="0 0 98 30" fill="none" xmlns="http://www.w3.org/2000/svg">
<path d="M4.64 12.68C4.64 7.79247 4.64 5.34871 5.81297 3.59323C6.32076 2.83327 6.97327 2.18076 7.73323 1.67297C9.48871 0.5 11.9325 0.5 16.82 0.5C21.7075 0.5 24.1513 0.5 25.9068 1.67297C26.6667 2.18076 27.3192 2.83327 27.827 3.59323C29 5.34871 29 7.79247 29 12.68C29 17.5675 29 20.0113 27.827 21.7668C27.3192 22.5267 26.6667 23.1792 25.9068 23.687C24.1513 24.86 21.7075 24.86 16.82 24.86C11.9325 24.86 9.48871 24.86 7.73323 23.687C6.97327 23.1792 6.32076 22.5267 5.81297 21.7668C4.64 20.0113 4.64 17.5675 4.64 12.68Z" fill="#553B33"/>
<path d="M0 14.42C0 10.0454 0 7.85805 1.35902 6.49902C2.71805 5.14 4.90537 5.14 9.28 5.14H15.08C19.4546 5.14 21.6419 5.14 23.001 6.49902C24.36 7.85805 24.36 10.0454 24.36 14.42V20.22C24.36 24.5946 24.36 26.7819 23.001 28.141C21.6419 29.5 19.4546 29.5 15.08 29.5H9.28C4.90537 29.5 2.71805 29.5 1.35902 28.141C0 26.7819 0 24.5946 0 20.22V14.42Z" fill="#2F241F"/>
<path d="M41.9183 21.6701H37.1333V8.17188H41.9578C43.3156 8.17188 44.4844 8.4421 45.4642 8.98256C46.4441 9.51862 47.1976 10.2898 47.7249 11.296C48.2566 12.3022 48.5224 13.5061 48.5224 14.9078C48.5224 16.3138 48.2566 17.5222 47.7249 18.5328C47.1976 19.5434 46.4397 20.3189 45.451 20.8594C44.4668 21.3998 43.2892 21.6701 41.9183 21.6701ZM39.9872 19.2248H41.7997C42.6433 19.2248 43.3529 19.0754 43.9285 18.7766C44.5085 18.4735 44.9435 18.0055 45.2335 17.3728C45.5279 16.7357 45.6751 15.914 45.6751 14.9078C45.6751 13.9104 45.5279 13.0953 45.2335 12.4626C44.9435 11.8298 44.5107 11.3641 43.9351 11.0653C43.3595 10.7665 42.6499 10.6171 41.8063 10.6171H39.9872V19.2248Z" fill="#2F241F"/>
<path d="M54.4549 21.8678C53.4136 21.8678 52.5172 21.6569 51.7658 21.2351C51.0189 20.8088 50.4433 20.2069 50.039 19.4291C49.6348 18.647 49.4327 17.7221 49.4327 16.6544C49.4327 15.613 49.6348 14.6991 50.039 13.9126C50.4433 13.126 51.0123 12.5131 51.7461 12.0737C52.4843 11.6343 53.3499 11.4146 54.3429 11.4146C55.0108 11.4146 55.6325 11.5223 56.2081 11.7376C56.7881 11.9485 57.2934 12.267 57.724 12.6932C58.159 13.1195 58.4974 13.6555 58.739 14.3014C58.9807 14.9429 59.1015 15.6943 59.1015 16.5555V17.3266H50.5531V15.5866H56.4586C56.4586 15.1824 56.3707 14.8243 56.1949 14.5123C56.0192 14.2004 55.7753 13.9565 55.4633 13.7807C55.1558 13.6006 54.7977 13.5105 54.389 13.5105C53.9628 13.5105 53.5849 13.6094 53.2554 13.8071C52.9302 14.0004 52.6754 14.2619 52.4908 14.5914C52.3063 14.9166 52.2118 15.2791 52.2074 15.6789V17.3332C52.2074 17.8341 52.2997 18.267 52.4843 18.6316C52.6732 18.9963 52.939 19.2776 53.2818 19.4753C53.6245 19.673 54.0309 19.7719 54.5011 19.7719C54.813 19.7719 55.0986 19.7279 55.3579 19.6401C55.6171 19.5522 55.839 19.4204 56.0236 19.2446C56.2081 19.0688 56.3487 18.8535 56.4454 18.5987L59.0422 18.7701C58.9104 19.394 58.6402 19.9388 58.2315 20.4046C57.8273 20.866 57.3044 21.2263 56.6629 21.4855C56.0258 21.7404 55.2898 21.8678 54.4549 21.8678Z" fill="#2F241F"/>
<path d="M62.7355 18.7569L62.7421 15.3889H63.1507L66.3934 11.5464H69.6164L65.2598 16.6346H64.5941L62.7355 18.7569ZM60.1914 21.6701V8.17188H62.9991V21.6701H60.1914ZM66.5187 21.6701L63.5396 17.2607L65.4114 15.2769L69.8075 21.6701H66.5187Z" fill="#2F241F"/>
<path d="M74.4087 21.8678C73.3849 21.8678 72.4995 21.6503 71.7526 21.2153C71.01 20.7759 70.4366 20.1651 70.0324 19.383C69.6281 18.5965 69.426 17.6848 69.426 16.6478C69.426 15.602 69.6281 14.6881 70.0324 13.906C70.4366 13.1195 71.01 12.5087 71.7526 12.0737C72.4995 11.6343 73.3849 11.4146 74.4087 11.4146C75.4325 11.4146 76.3157 11.6343 77.0583 12.0737C77.8052 12.5087 78.3808 13.1195 78.7851 13.906C79.1893 14.6881 79.3914 15.602 79.3914 16.6478C79.3914 17.6848 79.1893 18.5965 78.7851 19.383C78.3808 20.1651 77.8052 20.7759 77.0583 21.2153C76.3157 21.6503 75.4325 21.8678 74.4087 21.8678ZM74.4219 19.6928C74.8877 19.6928 75.2765 19.561 75.5885 19.2973C75.9005 19.0293 76.1355 18.6646 76.2937 18.2032C76.4563 17.7419 76.5376 17.2168 76.5376 16.628C76.5376 16.0392 76.4563 15.5141 76.2937 15.0528C76.1355 14.5914 75.9005 14.2267 75.5885 13.9587C75.2765 13.6907 74.8877 13.5566 74.4219 13.5566C73.9517 13.5566 73.5563 13.6907 73.2355 13.9587C72.9192 14.2267 72.6797 14.5914 72.5171 15.0528C72.3589 15.5141 72.2799 16.0392 72.2799 16.628C72.2799 17.2168 72.3589 17.7419 72.5171 18.2032C72.6797 18.6646 72.9192 19.0293 73.2355 19.2973C73.5563 19.561 73.9517 19.6928 74.4219 19.6928Z" fill="#2F241F"/>
<path d="M85.0488 21.8678C84.025 21.8678 83.1397 21.6503 82.3927 21.2153C81.6501 20.7759 81.0767 20.1651 80.6725 19.383C80.2682 18.5965 80.0661 17.6848 80.0661 16.6478C80.0661 15.602 80.2682 14.6881 80.6725 13.906C81.0767 13.1195 81.6501 12.5087 82.3927 12.0737C83.1397 11.6343 84.025 11.4146 85.0488 11.4146C86.0726 11.4146 86.9558 11.6343 87.6984 12.0737C88.4453 12.5087 89.0209 13.1195 89.4252 13.906C89.8294 14.6881 90.0315 15.602 90.0315 16.6478C90.0315 17.6848 89.8294 18.5965 89.4252 19.383C89.0209 20.1651 88.4453 20.7759 87.6984 21.2153C86.9558 21.6503 86.0726 21.8678 85.0488 21.8678ZM85.062 19.6928C85.5278 19.6928 85.9166 19.561 86.2286 19.2973C86.5406 19.0293 86.7756 18.6646 86.9338 18.2032C87.0964 17.7419 87.1777 17.2168 87.1777 16.628C87.1777 16.0392 87.0964 15.5141 86.9338 15.0528C86.7756 14.5914 86.5406 14.2267 86.2286 13.9587C85.9166 13.6907 85.5278 13.5566 85.062 13.5566C84.5918 13.5566 84.1964 13.6907 83.8756 13.9587C83.5593 14.2267 83.3198 14.5914 83.1572 15.0528C82.999 15.5141 82.92 16.0392 82.92 16.628C82.92 17.2168 82.999 17.7419 83.1572 18.2032C83.3198 18.6646 83.5593 19.0293 83.8756 19.2973C84.1964 19.561 84.5918 19.6928 85.062 19.6928Z" fill="#2F241F"/>
<path d="M91.1148 21.6701V11.5464H93.8369V13.3128H93.9423C94.1269 12.6845 94.4366 12.2099 94.8716 11.8891C95.3066 11.564 95.8076 11.4014 96.3744 11.4014C96.515 11.4014 96.6666 11.4102 96.8291 11.4278C96.9917 11.4454 97.1345 11.4695 97.2576 11.5003V13.9916C97.1257 13.9521 96.9434 13.917 96.7105 13.8862C96.4776 13.8554 96.2645 13.8401 96.0712 13.8401C95.6582 13.8401 95.2891 13.9301 94.9639 14.1103C94.6432 14.286 94.3883 14.5321 94.1994 14.8485C94.0148 15.1648 93.9226 15.5295 93.9226 15.9426V21.6701H91.1148Z" fill="#2F241F"/>
</svg>
